<svg xmlns="http://www.w3.org/2000/svg" width="34" height="34" viewBox="0 0 34 34">
  <path id="Path_11" data-name="Path 11" d="M-9.256-47.3c.276.2-.184.275-.092.511a11.107,11.107,0,0,1,1.562,2.6A18.655,18.655,0,0,0-6.5-41.638a5.821,5.821,0,0,1,.368,1.18c.184.551.184,1.141,1.195,1.574l-.368.2c.827,1.377,1.378,2.793,2.205,4.131a40.516,40.516,0,0,0,2.573,4.17,2.757,2.757,0,0,0,.459,1.141,7.126,7.126,0,0,0-1.378,1.81A14.672,14.672,0,0,1-2.456-25.9,16.335,16.335,0,0,0-4.11-23.5a20.1,20.1,0,0,1-1.1,1.888,5.628,5.628,0,0,0-.919,1.456,18.1,18.1,0,0,1-1.1,2.046c-.368.629-1.011,1.259-1.47,1.888l-1.47,2.164a4.832,4.832,0,0,0,1.746.511c3.032-.079,6.065.157,9.189.079.459-.039.919-.118,1.011-.354l.643-.9,1.011-2.006c.551-.787,1.195-1.613,1.654-2.439.184-.354.551-.669.643-1.023a7.078,7.078,0,0,0,1.1-2.557c.276.2.459,1.141.643,1.338.368.511.184,1.023.551,1.534a26.065,26.065,0,0,1,1.47,3.5c.368.787.735,1.574,1.011,2.361.092.236.459.315.643.472a4.44,4.44,0,0,1,1.47.118,11.129,11.129,0,0,1,1.47-.2c2.665.039,5.238.2,7.719.315a7.754,7.754,0,0,0,1.47-.669c-.643-.433-.735-.944-1.1-1.416a12.981,12.981,0,0,0-1.195-2.2,4.778,4.778,0,0,1-.551-.9c-.184-.236-.184-.511-.368-.787-.368-.669-1.011-1.3-.919-2.046a1.409,1.409,0,0,0-.643-1.22c-.184-1.023-1.1-1.849-1.378-2.715a11.605,11.605,0,0,0-1.286-2.754c-.551-.826-.919-1.692-1.562-2.518l.276-.275,1.011-2.2,1.286-2.243c.276-.275,0-.551.184-.866a22.43,22.43,0,0,0,1.286-1.849c.276-.511.735-.984,1.011-1.456a8.646,8.646,0,0,0,.919-1.3c.276-.826.827-1.613,1.195-2.439.643-1.18,1.746-2.321,2.389-3.541a.768.768,0,0,0-.459-.157,23.332,23.332,0,0,0-3.308-.2,22.353,22.353,0,0,1-2.3,0c-1.93.039-3.859-.118-5.789-.2A1.229,1.229,0,0,0,11.42-46.2a1.992,1.992,0,0,0-.459.354,13.521,13.521,0,0,0-1.011,1.731l-1.1,1.849a22.246,22.246,0,0,0-1.011,2.125,18.544,18.544,0,0,1-1.47,3.58,24.508,24.508,0,0,0-.735-2.6c-.184-.708-.919-1.377-1.011-2.125a2.668,2.668,0,0,0-.735-1.692,4.11,4.11,0,0,1-.919-1.77,9.312,9.312,0,0,0-.551-1.574c-.092-.315,0-.59-.643-.866C-1.813-47.224-5.4-47.342-9.256-47.3Z" transform="translate(10.175 47.311)" fill="#fff"/>
</svg>
