<svg xmlns="http://www.w3.org/2000/svg" width="17.7" height="15.306" viewBox="0 0 17.7 15.306">
  <path id="Path_11" data-name="Path 11" d="M-9.7-47.308c.144.089-.1.124-.048.23a4.919,4.919,0,0,1,.813,1.169,8.016,8.016,0,0,0,.67,1.151,2.369,2.369,0,0,1,.191.531c.1.248.1.514.622.708l-.191.089c.431.62.718,1.258,1.148,1.86a18.024,18.024,0,0,0,1.339,1.877,1.152,1.152,0,0,0,.239.514,3.3,3.3,0,0,0-.718.815,6.608,6.608,0,0,1-.526.691,7.422,7.422,0,0,0-.861,1.08,8.852,8.852,0,0,1-.574.85,2.514,2.514,0,0,0-.478.655,7.866,7.866,0,0,1-.574.921c-.191.283-.526.567-.765.85l-.765.974a2.813,2.813,0,0,0,.909.23c1.579-.035,3.157.071,4.784.035.239-.018.478-.053.526-.159l.335-.407.526-.9a13.372,13.372,0,0,0,.861-1.1c.1-.159.287-.3.335-.461a2.981,2.981,0,0,0,.574-1.151c.144.089.239.514.335.6.191.23.1.461.287.691a10.928,10.928,0,0,1,.765,1.576,10.94,10.94,0,0,1,.526,1.063c.048.106.239.142.335.213a2.661,2.661,0,0,1,.765.053,6.654,6.654,0,0,1,.765-.089c1.387.018,2.727.089,4.018.142a4.363,4.363,0,0,0,.765-.3c-.335-.195-.383-.425-.574-.638a5.645,5.645,0,0,0-.622-.992,2.12,2.12,0,0,1-.287-.407c-.1-.106-.1-.23-.191-.354-.191-.3-.526-.584-.478-.921a.614.614,0,0,0-.335-.549c-.1-.461-.574-.832-.718-1.222a4.936,4.936,0,0,0-.67-1.24c-.287-.372-.478-.762-.813-1.134l.144-.124.526-.992.67-1.01c.144-.124,0-.248.1-.39a10.212,10.212,0,0,0,.67-.832c.144-.23.383-.443.526-.655a3.95,3.95,0,0,0,.478-.584c.144-.372.431-.726.622-1.1.335-.531.909-1.045,1.244-1.594a.44.44,0,0,0-.239-.071A14.023,14.023,0,0,0,5.564-47.2c-.431.035-.813,0-1.2,0-1,.018-2.009-.053-3.014-.089a.532.532,0,0,0-.287.478,1.032,1.032,0,0,0-.239.159,5.956,5.956,0,0,0-.526.779l-.574.832a9.482,9.482,0,0,0-.526.956,7.756,7.756,0,0,1-.765,1.612,9.9,9.9,0,0,0-.383-1.169c-.1-.319-.478-.62-.526-.956a1.127,1.127,0,0,0-.383-.762,1.776,1.776,0,0,1-.478-.8,3.829,3.829,0,0,0-.287-.708c-.048-.142,0-.266-.335-.39C-5.822-47.272-7.687-47.325-9.7-47.308Z" transform="translate(10.175 47.311)" fill="#fff"/>
</svg>
