<svg xmlns="http://www.w3.org/2000/svg" width="34" height="34" viewBox="0 0 34 34">
  <path id="Path_10" data-name="Path 10" d="M-17.611-26.016h4.4a2.935,2.935,0,0,0,.691-.141,5.128,5.128,0,0,1,1.006-.211c1.823,0,3.645,0,5.468-.07h9.93c2.074.07,4.148.07,6.222.07h4.839a1.483,1.483,0,0,0,.628-.914,36.93,36.93,0,0,1,0-4.569,1.243,1.243,0,0,0-.628-.773.621.621,0,0,0-.314-.07,14.633,14.633,0,0,1-3.519-.351,3.673,3.673,0,0,0-1.948.07,8.319,8.319,0,0,1-2.262.281H2.123a21.785,21.785,0,0,0-3.708.07,14.021,14.021,0,0,1-2.954.281c-1.006,0-2.011.07-3.017.07-.314,0-.628.281-1.006.141-.754-.422-1.445,0-2.074.141l-.943-.351a7.647,7.647,0,0,1-1.257-.141c-.314-.07-.754.141-1.131.141-1.32.07-2.577.07-3.959.07l-.5.492c.628,1.757.126,3.514.5,5.412A1.579,1.579,0,0,1-17.611-26.016Zm0,13.437h4.4a2.935,2.935,0,0,0,.691-.141,5.127,5.127,0,0,1,1.006-.211c1.823,0,3.645,0,5.468-.07h9.93c2.074.07,4.148.07,6.222.07h4.839a1.483,1.483,0,0,0,.628-.914,36.93,36.93,0,0,1,0-4.569,1.243,1.243,0,0,0-.628-.773.621.621,0,0,0-.314-.07,14.633,14.633,0,0,1-3.519-.351,3.673,3.673,0,0,0-1.948.07,8.319,8.319,0,0,1-2.262.281H2.123a21.786,21.786,0,0,0-3.708.07,14.02,14.02,0,0,1-2.954.281c-1.006,0-2.011.07-3.017.07-.314,0-.628.281-1.006.141-.754-.422-1.445,0-2.074.141l-.943-.351a7.647,7.647,0,0,1-1.257-.141c-.314-.07-.754.141-1.131.141-1.32.07-2.577.07-3.959.07l-.5.492c.628,1.757.126,3.514.5,5.412A1.579,1.579,0,0,1-17.611-12.58Zm0,13.437h4.4A2.935,2.935,0,0,0-12.52.717,5.128,5.128,0,0,1-11.515.506c1.823,0,3.645,0,5.468-.07h9.93c2.074.07,4.148.07,6.222.07h4.839a1.483,1.483,0,0,0,.628-.914,36.93,36.93,0,0,1,0-4.569,1.243,1.243,0,0,0-.628-.773.621.621,0,0,0-.314-.07,14.634,14.634,0,0,1-3.519-.351,3.673,3.673,0,0,0-1.948.07A8.319,8.319,0,0,1,6.9-5.82H2.123a21.786,21.786,0,0,0-3.708.07,14.02,14.02,0,0,1-2.954.281c-1.006,0-2.011.07-3.017.07-.314,0-.628.281-1.006.141-.754-.422-1.445,0-2.074.141l-.943-.351a7.647,7.647,0,0,1-1.257-.141c-.314-.07-.754.141-1.131.141-1.32.07-2.577.07-3.959.07l-.5.492c.628,1.757.126,3.514.5,5.412A1.579,1.579,0,0,1-17.611.857Z" transform="translate(18.428 33.143)" fill="#fff"/>
</svg>
