<svg xmlns="http://www.w3.org/2000/svg" width="17.7" height="15.827" viewBox="0 0 17.7 15.827">
  <path id="Path_10" data-name="Path 10" d="M-18-29.825h2.29a1.688,1.688,0,0,0,.36-.065,2.946,2.946,0,0,1,.523-.1c.949,0,1.9,0,2.846-.033h5.169c1.08.033,2.159.033,3.239.033h2.519c.164-.131.294-.229.327-.425a15.376,15.376,0,0,1,0-2.127.6.6,0,0,0-.327-.36.356.356,0,0,0-.164-.033A8.488,8.488,0,0,1-3.051-33.1a2.13,2.13,0,0,0-1.014.033,4.817,4.817,0,0,1-1.178.131H-7.729a12.678,12.678,0,0,0-1.93.033,8.136,8.136,0,0,1-1.538.131c-.523,0-1.047.033-1.57.033-.164,0-.327.131-.523.065-.393-.2-.753,0-1.08.065l-.491-.164a4.434,4.434,0,0,1-.654-.065,4.046,4.046,0,0,0-.589.065c-.687.033-1.341.033-2.061.033l-.262.229c.327.818.065,1.636.262,2.519C-18.134-29.956-18.035-29.891-18-29.825Zm0,6.255h2.29a1.688,1.688,0,0,0,.36-.065,2.946,2.946,0,0,1,.523-.1c.949,0,1.9,0,2.846-.033h5.169c1.08.033,2.159.033,3.239.033h2.519c.164-.131.294-.229.327-.425a15.376,15.376,0,0,1,0-2.127.6.6,0,0,0-.327-.36.356.356,0,0,0-.164-.033,8.488,8.488,0,0,1-1.832-.164,2.13,2.13,0,0,0-1.014.033,4.817,4.817,0,0,1-1.178.131H-7.729a12.678,12.678,0,0,0-1.93.033,8.136,8.136,0,0,1-1.538.131c-.523,0-1.047.033-1.57.033-.164,0-.327.131-.523.065-.393-.2-.753,0-1.08.065l-.491-.164a4.434,4.434,0,0,1-.654-.065,4.046,4.046,0,0,0-.589.065c-.687.033-1.341.033-2.061.033l-.262.229c.327.818.065,1.636.262,2.519C-18.134-23.7-18.035-23.636-18-23.571Zm0,6.255h2.29a1.688,1.688,0,0,0,.36-.065,2.946,2.946,0,0,1,.523-.1c.949,0,1.9,0,2.846-.033h5.169c1.08.033,2.159.033,3.239.033h2.519c.164-.131.294-.229.327-.425a15.376,15.376,0,0,1,0-2.127.6.6,0,0,0-.327-.36.356.356,0,0,0-.164-.033,8.488,8.488,0,0,1-1.832-.164,2.13,2.13,0,0,0-1.014.033,4.817,4.817,0,0,1-1.178.131H-7.729a12.678,12.678,0,0,0-1.93.033,8.136,8.136,0,0,1-1.538.131c-.523,0-1.047.033-1.57.033-.164,0-.327.131-.523.065-.393-.2-.753,0-1.08.065l-.491-.164a4.434,4.434,0,0,1-.654-.065,4.046,4.046,0,0,0-.589.065c-.687.033-1.341.033-2.061.033l-.262.229c.327.818.065,1.636.262,2.519C-18.134-17.447-18.035-17.381-18-17.316Z" transform="translate(18.428 33.143)" fill="#fff"/>
</svg>
